# Blender v3.0.0 OBJ File: 'barrier.blend'
# www.blender.org
mtllib barrier.mtl
o Cube
v 3.086534 0.029772 -0.814056
v 3.086534 0.029772 0.798508
v -3.060615 0.039290 0.769217
v -3.060613 0.039290 -0.796674
v 3.086536 1.936838 -0.212649
v 1.793248 1.888471 0.173565
v -3.060616 1.918135 0.167811
v -3.060614 1.915132 -0.195267
v 3.086534 0.169909 -0.814056
v 3.086534 0.169909 0.798508
v -3.060615 0.169909 0.769217
v -3.060613 0.169909 -0.796674
v -3.060613 0.568019 -0.419032
v -3.060615 0.568019 0.391575
v 3.086533 0.568019 0.420866
v 3.086535 0.568019 -0.436414
v 3.086534 0.029772 -0.417618
v 3.086534 0.153373 0.000000
v 3.086534 0.029772 0.417618
v -3.060615 0.039290 0.417618
v -3.060614 0.162891 -0.000000
v -3.060614 0.039290 -0.417618
v 3.086535 1.975854 -0.116914
v 3.086534 1.975854 0.000000
v 3.016968 1.914736 0.109780
v -3.060615 1.954147 0.116915
v -3.060615 1.954147 0.000000
v -3.060615 1.954147 -0.116914
v 3.086534 0.169909 -0.417618
v 3.086534 0.169909 0.000000
v 3.086534 0.169909 0.417618
v -3.060615 0.169909 0.417618
v -3.060614 0.169909 -0.000000
v -3.060614 0.169909 -0.417618
v 3.086534 0.568019 -0.228797
v 3.086534 0.568019 0.000000
v 3.086534 0.568019 0.228797
v -3.060615 0.568019 0.228797
v -3.060614 0.568019 -0.000000
v -3.060614 0.568019 -0.228797
v 3.051632 0.000000 -0.835236
v -3.011225 0.000000 -0.835236
v 3.052643 0.000000 0.835236
v -3.011226 0.000000 0.835236
v 3.051633 1.960985 -0.233829
v -3.011226 1.960985 -0.233829
v 2.976170 1.905913 0.215020
v -3.011228 1.963988 0.233829
v 3.052643 0.169909 0.835236
v -3.011226 0.169909 0.835236
v 3.051632 0.169909 -0.835236
v -3.011225 0.169909 -0.835236
v 3.051632 0.568019 -0.457593
v -3.011225 0.568019 -0.457594
v 3.052642 0.568019 0.457593
v -3.011227 0.568019 0.457593
v 3.051632 0.000000 -0.417618
v -3.011226 0.000000 -0.417618
v 3.051632 0.123600 -0.000000
v -3.011226 0.123600 -0.000000
v 3.051632 0.000000 0.417618
v -3.011226 0.000000 0.417618
v -3.011226 2.000000 -0.183782
v 3.051632 2.000000 -0.183782
v -3.011226 2.000000 0.000000
v 3.058291 2.000000 0.000000
v -3.011227 2.000000 0.201094
v 2.904983 1.941948 0.170492
v 3.086535 0.592161 -0.436420
v 3.086533 0.592261 0.420706
v -3.060615 0.591535 0.390901
v -3.060613 0.591435 -0.418732
v 3.086534 0.593465 -0.228959
v 3.086534 0.593465 0.000054
v 3.086534 0.593465 0.229067
v -3.060615 0.592739 0.229067
v -3.060614 0.592739 0.000054
v -3.060614 0.592739 -0.228959
v 3.052642 0.593068 0.458080
v -3.011227 0.593068 0.458080
v 3.051632 0.592968 -0.457972
v -3.011225 0.592968 -0.457972
v -3.060615 0.185100 0.416499
v 3.086534 0.185100 0.416499
v 3.086534 0.185100 0.000088
v 3.086534 0.185100 -0.416324
v -3.011226 0.185100 0.832910
v 3.052643 0.185100 0.832910
v -3.060615 0.185100 0.765011
v 3.086534 0.185100 -0.810952
v 3.086534 0.185100 0.795136
v -3.060613 0.185100 -0.793075
v -3.011225 0.185100 -0.832735
v 3.051632 0.185100 -0.832735
v -3.060614 0.185100 -0.416324
v -3.060614 0.185100 0.000087
v 3.086534 0.091572 0.208809
v -3.060614 0.101091 0.208809
v 3.086533 1.975854 0.029887
v -3.060615 1.954147 0.058457
v 3.086534 0.169909 0.208809
v -3.060614 0.169909 0.208809
v 3.086534 0.568019 0.114398
v -3.060615 0.568019 0.114398
v 3.051632 0.061800 0.208809
v -3.011226 0.061800 0.208809
v 2.987103 2.000000 0.071976
v -3.011227 2.000000 0.100547
v 3.086534 0.593465 0.114561
v -3.060615 0.592739 0.114560
v 3.086534 0.185100 0.208293
v -3.060614 0.185100 0.208293
v 2.908279 2.000000 0.071976
v 2.926574 0.061800 0.208809
v 2.926574 0.185100 -0.832735
v 2.926573 0.185100 0.832910
v 2.926574 0.592968 -0.457972
v 2.926573 0.593068 0.458080
v 2.909290 2.000000 0.201094
v 2.926574 2.000000 0.000000
v 2.926573 0.568019 0.457593
v 2.926574 0.568019 -0.457593
v 2.926574 0.169909 -0.835236
v 2.926573 0.169909 0.835236
v 2.926572 1.963988 0.233829
v 2.926575 1.960985 -0.233829
v 2.927585 0.000000 0.835236
v 2.926574 0.000000 -0.835236
v 2.926574 2.000000 -0.183782
v 2.926574 0.000000 0.417618
v 2.926574 0.123600 -0.000000
v 2.926574 0.000000 -0.417618
v 3.086536 1.866007 -0.224436
v 3.086532 1.817670 0.208880
v -3.060616 1.848256 0.179562
v -3.060614 1.845406 -0.207038
v 3.051633 1.888924 -0.245636
v -3.011226 1.888924 -0.245636
v 3.086535 1.903036 -0.122816
v 3.086534 1.903036 0.000003
v 3.086533 1.851848 0.122822
v -3.060615 1.882435 0.122822
v -3.060615 1.882435 0.000003
v -3.060615 1.882435 -0.122816
v 3.052642 1.840587 0.245642
v -3.011228 1.891775 0.245641
v 3.086533 1.903036 0.061413
v -3.060615 1.882435 0.061413
v 2.926572 1.891775 0.245642
v 2.926575 1.888924 -0.245636
vt 0.182115 0.021984
vt 0.242235 0.023755
vt 0.230383 0.029721
vt 0.181803 0.027980
vt 0.155689 0.263664
vt 0.134226 0.252672
vt 0.147656 0.245471
vt 0.164609 0.256067
vt 0.049397 0.949410
vt 0.054941 0.968099
vt 0.033792 0.959077
vt 0.021498 0.940401
vt 0.168225 0.240189
vt 0.151502 0.230389
vt 0.082871 0.237047
vt 0.081873 0.249927
vt 0.065429 0.240331
vt 0.065501 0.225762
vt 0.006756 0.047477
vt 0.008732 0.023775
vt 0.014994 0.030143
vt 0.014901 0.047211
vt 0.070353 0.321301
vt 0.069623 0.338282
vt 0.021679 0.336487
vt 0.022652 0.316609
vt 0.243232 0.048201
vt 0.230014 0.047820
vt 0.062775 0.033013
vt 0.062801 0.046338
vt 0.007096 0.050121
vt 0.015948 0.050410
vt 0.242805 0.050684
vt 0.186085 0.098534
vt 0.172917 0.098619
vt 0.228814 0.050896
vt 0.069845 0.343196
vt 0.093376 0.392434
vt 0.065968 0.388077
vt 0.022714 0.340212
vt 0.047204 0.098003
vt 0.047753 0.092627
vt 0.058513 0.093808
vt 0.058343 0.097778
vt 0.063411 0.052440
vt 0.084452 0.096558
vt 0.062741 0.026692
vt 0.110376 0.036716
vt 0.110426 0.042765
vt 0.146662 0.029210
vt 0.146507 0.035010
vt 0.055023 0.248622
vt 0.066163 0.257158
vt 0.105652 0.251520
vt 0.105251 0.260287
vt 0.129523 0.262494
vt 0.119556 0.252059
vt 0.160087 0.529491
vt 0.158628 0.543357
vt 0.139557 0.550049
vt 0.140192 0.538347
vt 0.118000 0.549551
vt 0.119063 0.537500
vt 0.072094 0.963652
vt 0.083990 0.982448
vt 0.136117 0.237558
vt 0.120381 0.237683
vt 0.105303 0.238267
vt 0.227774 0.342307
vt 0.226954 0.360366
vt 0.182220 0.353644
vt 0.183439 0.340531
vt 0.137763 0.349072
vt 0.138589 0.344227
vt 0.104644 0.331446
vt 0.103432 0.342141
vt 0.181600 0.044617
vt 0.146356 0.044736
vt 0.110574 0.047813
vt 0.225202 0.363822
vt 0.185766 0.398553
vt 0.156950 0.398807
vt 0.180931 0.359247
vt 0.128413 0.396839
vt 0.136750 0.353905
vt 0.103084 0.346513
vt 0.110610 0.395086
vt 0.149296 0.098668
vt 0.180862 0.049623
vt 0.146200 0.049270
vt 0.131415 0.098647
vt 0.113206 0.097940
vt 0.110955 0.052883
vt 0.016002 0.310325
vt 0.070550 0.316011
vt 0.346439 0.562907
vt 0.266863 0.563456
vt 0.257491 0.297164
vt 0.352634 0.294694
vt 0.033623 0.978215
vt 0.017720 0.968107
vt 0.016054 0.844202
vt 0.006111 0.621543
vt 0.035232 0.621616
vt 0.045268 0.846353
vt 0.008870 0.946416
vt 0.074689 0.846218
vt 0.064653 0.621481
vt 0.231733 0.337435
vt 0.231599 0.361068
vt 0.585346 0.846594
vt 0.545072 0.854639
vt 0.506384 0.610765
vt 0.538487 0.605824
vt 0.013151 0.336556
vt 0.464507 0.859583
vt 0.421866 0.857741
vt 0.448662 0.604782
vt 0.482291 0.606751
vt 0.231202 0.364274
vt 0.591084 0.845518
vt 0.569691 0.603297
vt 0.054999 0.386521
vt 0.013354 0.339523
vt 0.415740 0.856826
vt 0.303898 0.845696
vt 0.309155 0.612746
vt 0.416536 0.603766
vt 0.185265 0.403363
vt 0.194208 0.398430
vt 0.193577 0.405125
vt 0.719246 0.830400
vt 0.699102 0.832780
vt 0.672626 0.601831
vt 0.701960 0.601293
vt 0.184173 0.334741
vt 0.636360 0.561004
vt 0.545098 0.559493
vt 0.550023 0.296946
vt 0.643511 0.299640
vt 0.139279 0.339107
vt 0.460323 0.560970
vt 0.453215 0.294340
vt 0.105067 0.326753
vt 0.403210 0.563583
vt 0.403123 0.294340
vt 0.163325 0.547793
vt 0.152670 0.554365
vt 0.931933 0.848168
vt 0.952613 0.595496
vt 0.985747 0.596680
vt 0.966373 0.849471
vt 0.117860 0.553559
vt 0.975028 0.991487
vt 0.434807 0.991502
vt 0.435403 0.953859
vt 0.972885 0.948711
vt 0.070910 0.990650
vt 0.967798 0.924595
vt 0.432482 0.923340
vt 0.431236 0.892770
vt 0.965849 0.894002
vt 0.092804 0.395783
vt 0.065669 0.392390
vt 0.186256 0.102652
vt 0.172713 0.101993
vt 0.084136 0.100084
vt 0.053054 0.233445
vt 0.156875 0.402511
vt 0.128161 0.400359
vt 0.110161 0.398329
vt 0.149368 0.101825
vt 0.131391 0.101888
vt 0.113011 0.101435
vt 0.054279 0.392381
vt 0.283803 0.844202
vt 0.279814 0.611873
vt 0.166339 0.534313
vt 0.894478 0.844698
vt 0.920507 0.591864
vt 0.112029 0.549341
vt 0.105055 0.536186
vt 0.103420 0.554365
vt 0.591763 0.855554
vt 0.586502 0.855465
vt 0.988087 0.991502
vt 0.988544 0.948547
vt 0.464544 0.867008
vt 0.421206 0.867224
vt 0.546004 0.861602
vt 0.068474 0.995489
vt 0.023144 0.995489
vt 0.460754 0.569577
vt 0.403383 0.571100
vt 0.979551 0.924569
vt 0.011483 0.985303
vt 0.700360 0.850125
vt 0.346216 0.571387
vt 0.266790 0.573852
vt 0.636550 0.572934
vt 0.545375 0.570961
vt 0.006132 0.963852
vt 0.415426 0.867731
vt 0.931500 0.862769
vt 0.966046 0.863601
vt 0.893222 0.862112
vt 0.718339 0.851451
vt 0.303620 0.863287
vt 0.284828 0.865631
vt 0.089466 0.523226
vt 0.074161 0.515741
vt 0.058048 0.521366
vt 0.111616 0.867962
vn -0.6226 -0.7826 -0.0000
vn -0.8614 0.3849 0.3315
vn 0.0474 0.7300 0.6818
vn -0.8263 0.0921 0.5556
vn -1.0000 0.0000 -0.0000
vn -0.6154 0.0000 -0.7882
vn 1.0000 0.0000 0.0000
vn -0.8007 0.0000 0.5990
vn -0.6133 0.1555 -0.7744
vn -0.6960 0.5019 0.5134
vn -0.6188 -0.0013 -0.7856
vn -0.6065 -0.7624 0.2256
vn -0.6065 -0.7624 -0.2256
vn -0.8031 0.5092 -0.3095
vn -0.6804 0.7329 -0.0000
vn -0.6804 0.7328 -0.0000
vn 0.5492 0.5012 0.6687
vn 0.6542 -0.7563 -0.0008
vn 0.0000 -1.0000 0.0000
vn 0.0478 -0.9967 -0.0650
vn -0.0000 0.6726 0.7400
vn 0.0621 0.1463 -0.9873
vn -0.0000 0.1614 0.9869
vn 0.5188 0.0000 -0.8549
vn 0.0000 0.0000 -1.0000
vn 0.7349 0.0000 0.6782
vn 0.0000 0.0000 1.0000
vn 0.5178 0.1552 -0.8413
vn 0.0000 0.1624 -0.9867
vn 0.6177 0.5501 0.5620
vn 0.0000 0.7000 0.7142
vn 0.5220 -0.0067 -0.8529
vn 0.0000 -0.0152 -0.9999
vn 0.6490 -0.7608 0.0000
vn 0.6331 -0.7422 0.2197
vn -0.0000 -0.9589 0.2838
vn 0.6331 -0.7422 -0.2197
vn 0.0000 -0.9589 -0.2838
vn 0.7696 0.5630 -0.3013
vn 0.0000 0.7887 -0.6148
vn 0.6165 0.7872 -0.0136
vn 0.0000 1.0000 0.0000
vn 0.4746 0.4903 0.7310
vn -0.8032 0.0023 0.5956
vn -0.6486 0.1249 -0.7508
vn 0.7378 -0.0045 0.6750
vn -0.0000 -0.0194 0.9998
vn 0.5506 0.1360 -0.8236
vn 0.0000 0.1617 -0.9868
vn 0.4026 0.6403 -0.6541
vn -0.7983 0.1266 0.5888
vn 0.7339 0.1252 0.6677
vn 0.0000 0.6998 -0.7143
vn -0.4926 0.6085 -0.6221
vn 0.0000 0.1513 0.9885
vn 0.4215 0.8576 0.2946
vn 0.6599 0.6374 0.3977
vn 0.7653 0.4806 -0.4281
vn 0.3700 0.4555 0.8097
vn -0.8148 0.0948 0.5719
vn 0.7509 0.1117 0.6509
vn -0.6767 0.1208 -0.7263
vn 0.5783 0.1329 -0.8049
vn 0.0334 0.1645 0.9858
usemtl Material
s off
f 62/1/1 44/2/1 3/3/1 20/4/1
f 67/5/2 26/6/2 7/7/2 48/8/2
f 141/9/3 25/10/3 6/11/3 134/12/3
f 146/13/4 48/8/4 7/7/4 135/14/4
f 144/15/5 28/16/5 8/17/5 136/18/5
f 52/19/6 42/20/6 4/21/6 12/22/6
f 19/23/7 31/24/7 10/25/7 2/26/7
f 44/2/8 50/27/8 11/28/8 3/3/8
f 22/29/5 34/30/5 12/22/5 4/21/5
f 93/31/9 52/19/9 12/22/9 92/32/9
f 87/33/10 56/34/10 14/35/10 89/36/10
f 84/37/7 37/38/7 15/39/7 91/40/7
f 82/41/11 54/42/11 13/43/11 72/44/11
f 95/45/5 40/46/5 13/43/5 92/32/5
f 42/20/1 58/47/1 22/29/1 4/21/1
f 58/47/12 60/48/12 21/49/12 22/29/12
f 106/50/13 62/1/13 20/4/13 98/51/13
f 46/52/14 8/17/14 28/16/14 63/53/14
f 63/53/15 28/16/15 27/54/15 65/55/15
f 108/56/16 100/57/16 26/6/16 67/5/16
f 133/58/7 5/59/7 23/60/7 139/61/7
f 139/61/7 23/60/7 24/62/7 140/63/7
f 147/64/17 99/65/17 25/10/17 141/9/17
f 135/14/5 7/7/5 26/6/5 142/66/5
f 148/67/5 100/57/5 27/54/5 143/68/5
f 143/68/5 27/54/5 28/16/5 144/15/5
f 1/69/7 9/70/7 29/71/7 17/72/7
f 17/72/7 29/71/7 30/73/7 18/74/7
f 97/75/7 101/76/7 31/24/7 19/23/7
f 3/3/5 11/28/5 32/77/5 20/4/5
f 98/51/5 102/78/5 33/79/5 21/49/5
f 21/49/5 33/79/5 34/30/5 22/29/5
f 90/80/7 16/81/7 35/82/7 86/83/7
f 86/83/7 35/82/7 36/84/7 85/85/7
f 111/86/7 103/87/7 37/38/7 84/37/7
f 89/36/5 14/35/5 38/88/5 83/89/5
f 112/90/5 104/91/5 39/92/5 96/93/5
f 96/93/5 39/92/5 40/46/5 95/45/5
f 19/23/18 2/26/18 43/94/18 61/95/18
f 130/96/19 127/97/19 44/98/19 62/99/19
f 25/10/20 68/100/20 47/101/20 6/11/20
f 119/102/21 67/103/21 48/104/21 125/105/21
f 134/12/22 6/11/22 47/101/22 145/106/22
f 149/107/23 125/105/23 48/104/23 146/108/23
f 9/70/24 1/69/24 41/109/24 51/110/24
f 123/111/25 128/112/25 42/113/25 52/114/25
f 2/26/26 10/25/26 49/115/26 43/94/26
f 127/116/27 124/117/27 50/118/27 44/119/27
f 90/80/28 9/70/28 51/110/28 94/120/28
f 115/121/29 123/111/29 52/114/29 93/122/29
f 91/40/30 15/39/30 55/123/30 88/124/30
f 116/125/31 121/126/31 56/127/31 87/128/31
f 69/129/32 16/81/32 53/130/32 81/131/32
f 117/132/33 122/133/33 54/134/33 82/135/33
f 1/69/34 17/72/34 57/136/34 41/109/34
f 128/137/19 132/138/19 58/139/19 42/140/19
f 17/72/35 18/74/35 59/141/35 57/136/35
f 132/138/36 131/142/36 60/143/36 58/139/36
f 97/75/37 19/23/37 61/95/37 105/144/37
f 114/145/38 130/96/38 62/99/38 106/146/38
f 5/59/39 45/147/39 64/148/39 23/60/39
f 126/149/40 46/150/40 63/151/40 129/152/40
f 23/60/41 64/148/41 66/153/41 24/62/41
f 129/154/42 63/155/42 65/156/42 120/157/42
f 99/65/43 107/158/43 68/100/43 25/10/43
f 113/159/42 108/160/42 67/161/42 119/162/42
f 37/38/7 75/163/7 70/164/7 15/39/7
f 56/34/44 80/165/44 71/166/44 14/35/44
f 40/46/5 78/167/5 72/44/5 13/43/5
f 138/168/45 82/41/45 72/44/45 136/18/45
f 16/81/7 69/129/7 73/169/7 35/82/7
f 35/82/7 73/169/7 74/170/7 36/84/7
f 103/87/7 109/171/7 75/163/7 37/38/7
f 14/35/5 71/166/5 76/172/5 38/88/5
f 104/91/5 110/173/5 77/174/5 39/92/5
f 39/92/5 77/174/5 78/167/5 40/46/5
f 15/39/46 70/164/46 79/175/46 55/123/46
f 121/126/47 118/176/47 80/177/47 56/127/47
f 133/58/48 69/129/48 81/131/48 137/178/48
f 150/179/49 117/132/49 82/135/49 138/180/49
f 16/81/50 90/80/50 94/120/50 53/130/50
f 50/27/51 87/33/51 89/36/51 11/28/51
f 29/71/7 86/83/7 85/85/7 30/73/7
f 11/28/5 89/36/5 83/89/5 32/77/5
f 34/30/5 95/45/5 92/32/5 12/22/5
f 10/25/52 91/40/52 88/124/52 49/115/52
f 122/133/53 115/121/53 93/122/53 54/134/53
f 9/70/7 90/80/7 86/83/7 29/71/7
f 54/42/54 93/31/54 92/32/54 13/43/54
f 124/117/55 116/125/55 87/128/55 50/118/55
f 31/24/7 84/37/7 91/40/7 10/25/7
f 102/78/5 112/90/5 96/93/5 33/79/5
f 33/79/5 96/93/5 95/45/5 34/30/5
f 101/76/7 111/86/7 84/37/7 31/24/7
f 60/48/13 106/50/13 98/51/13 21/49/13
f 65/55/15 27/54/15 100/57/15 108/56/15
f 140/63/7 24/62/7 99/181/7 147/182/7
f 142/66/5 26/6/5 100/57/5 148/67/5
f 18/74/7 30/73/7 101/76/7 97/75/7
f 20/4/5 32/77/5 102/78/5 98/51/5
f 85/85/7 36/84/7 103/87/7 111/86/7
f 83/89/5 38/88/5 104/91/5 112/90/5
f 18/74/37 97/75/37 105/144/37 59/141/37
f 131/142/38 114/145/38 106/146/38 60/143/38
f 24/62/56 66/153/56 107/183/56 99/181/56
f 120/157/42 65/156/42 108/160/42 113/159/42
f 36/84/7 74/170/7 109/171/7 103/87/7
f 38/88/5 76/172/5 110/173/5 104/91/5
f 32/77/5 83/89/5 112/90/5 102/78/5
f 30/73/7 85/85/7 111/86/7 101/76/7
f 94/184/29 51/185/29 123/111/29 115/121/29
f 64/186/42 129/154/42 120/157/42 66/187/42
f 43/188/27 49/189/27 124/117/27 127/116/27
f 51/185/25 41/190/25 128/112/25 123/111/25
f 107/158/57 113/191/57 119/192/57 68/100/57
f 59/193/38 105/194/38 114/145/38 131/142/38
f 66/187/42 120/157/42 113/159/42 107/195/42
f 68/100/58 119/192/58 125/196/58 47/101/58
f 53/197/53 94/184/53 115/121/53 122/133/53
f 61/198/19 43/199/19 127/97/19 130/96/19
f 41/200/19 57/201/19 132/138/19 128/137/19
f 145/106/59 47/101/59 125/196/59 149/202/59
f 49/189/55 88/203/55 116/125/55 124/117/55
f 45/204/40 126/149/40 129/152/40 64/205/40
f 105/194/38 61/198/38 130/96/38 114/145/38
f 57/201/36 59/193/36 131/142/36 132/138/36
f 137/206/49 81/207/49 117/132/49 150/179/49
f 81/207/33 53/197/33 122/133/33 117/132/33
f 55/208/47 79/209/47 118/176/47 121/126/47
f 88/203/31 55/208/31 121/126/31 116/125/31
f 75/163/7 141/210/7 134/211/7 70/164/7
f 80/165/60 146/13/60 135/14/60 71/166/60
f 78/167/5 144/15/5 136/18/5 72/44/5
f 69/129/7 133/58/7 139/61/7 73/169/7
f 73/169/7 139/61/7 140/63/7 74/170/7
f 109/171/7 147/182/7 141/210/7 75/163/7
f 71/166/5 135/14/5 142/66/5 76/172/5
f 110/173/5 148/67/5 143/68/5 77/174/5
f 77/174/5 143/68/5 144/15/5 78/167/5
f 70/164/61 134/211/61 145/212/61 79/175/61
f 118/176/23 149/107/23 146/108/23 80/177/23
f 46/52/62 138/168/62 136/18/62 8/17/62
f 5/59/63 133/58/63 137/178/63 45/147/63
f 126/149/49 150/179/49 138/180/49 46/150/49
f 74/170/7 140/63/7 147/182/7 109/171/7
f 76/172/5 142/66/5 148/67/5 110/173/5
f 79/209/64 145/213/64 149/107/64 118/176/64
f 45/204/49 137/206/49 150/179/49 126/149/49
l 6 48
l 6 7
